<?xml version="1.0" encoding="UTF-8" standalone="no"?>
<!-- Created with Inkscape (http://www.inkscape.org/) -->

<svg
   xmlns:dc="http://purl.org/dc/elements/1.1/"
   xmlns:cc="http://creativecommons.org/ns#"
   xmlns:rdf="http://www.w3.org/1999/02/22-rdf-syntax-ns#"
   xmlns:svg="http://www.w3.org/2000/svg"
   xmlns="http://www.w3.org/2000/svg"
   xmlns:sodipodi="http://sodipodi.sourceforge.net/DTD/sodipodi-0.dtd"
   xmlns:inkscape="http://www.inkscape.org/namespaces/inkscape"
   id="svg3390"
   version="1.1"
   inkscape:version="0.91 r13725"
   width="212"
   height="74"
   viewBox="0 0 212 74"
   sodipodi:docname="logo.svg"
   inkscape:export-filename="/home/jduc/Desktop/geoDL/logo.png"
   inkscape:export-xdpi="300.4054"
   inkscape:export-ydpi="300.4054">
  <metadata
     id="metadata3396">
    <rdf:RDF>
      <cc:Work
         rdf:about="">
        <dc:format>image/svg+xml</dc:format>
        <dc:type
           rdf:resource="http://purl.org/dc/dcmitype/StillImage" />
        <dc:title />
      </cc:Work>
    </rdf:RDF>
  </metadata>
  <defs
     id="defs3394">
    <inkscape:path-effect
       effect="skeletal"
       id="path-effect3471"
       is_visible="true"
       pattern="M 0,0 1,0"
       copytype="repeated"
       prop_scale="1"
       scale_y_rel="false"
       spacing="0"
       normal_offset="0"
       tang_offset="0"
       prop_units="false"
       vertical_pattern="false"
       fuse_tolerance="0" />
    <inkscape:path-effect
       effect="powerstroke"
       id="path-effect3469"
       is_visible="true"
       offset_points="0,1 | 4.5,1"
       sort_points="true"
       interpolator_type=""
       interpolator_beta="0.2"
       start_linecap_type="round"
       linejoin_type="round"
       miter_limit="4"
       end_linecap_type="round" />
    <inkscape:path-effect
       effect="ruler"
       id="path-effect3467"
       is_visible="false"
       unit="px"
       mark_distance="20"
       mark_length="14"
       minor_mark_length="7"
       major_mark_steps="5"
       shift="0"
       offset="0"
       mark_dir="left"
       border_marks="both" />
    <inkscape:path-effect
       effect="spiro"
       id="path-effect3465"
       is_visible="true" />
    <inkscape:path-effect
       effect="construct_grid"
       id="path-effect3461"
       is_visible="true"
       nr_x="5"
       nr_y="5" />
    <inkscape:perspective
       sodipodi:type="inkscape:persp3d"
       inkscape:vp_x="0 : 55.5 : 1"
       inkscape:vp_y="0 : 1000 : 0"
       inkscape:vp_z="227 : 55.5 : 1"
       inkscape:persp3d-origin="113.5 : 37 : 1"
       id="perspective3408" />
  </defs>
  <sodipodi:namedview
     pagecolor="#ffffff"
     bordercolor="#666666"
     borderopacity="1"
     objecttolerance="10"
     gridtolerance="10"
     guidetolerance="10"
     inkscape:pageopacity="0"
     inkscape:pageshadow="2"
     inkscape:window-width="954"
     inkscape:window-height="1145"
     id="namedview3392"
     showgrid="false"
     inkscape:object-paths="true"
     inkscape:snap-nodes="true"
     inkscape:zoom="1.9063877"
     inkscape:cx="22.816232"
     inkscape:cy="-34.413413"
     inkscape:window-x="960"
     inkscape:window-y="52"
     inkscape:window-maximized="0"
     inkscape:current-layer="svg3390"
     showborder="true"
     fit-margin-top="0"
     fit-margin-left="0"
     fit-margin-right="0"
     fit-margin-bottom="0" />
  <path
     style="fill:#000000"
     d="M 3.5,74 2,74 2,66 2,58 3.5,58 5,58 5,66 5,74 3.5,74 Z M 21.440983,74 8,74 l 0,-1 0,-1 14.059017,0 13.039002,0 -0.216053,2 -13.440983,0 z M 36,70.204176 C 36.791117,67.98445 37.649409,65.788667 38.573307,63.620843 39.381303,61.724971 40.239472,59.850482 41.146614,58 l 1.365021,0 1.365021,0 c -0.939682,2.07008 -1.879363,4.140159 -2.819045,6.210239 -0.939682,2.07008 -1.879364,4.140159 -2.819046,6.210239 L 36,70.204176 Z M 16.940983,56 8,56 l 0,-1 0,-1 9.559017,0 9.559017,0 -0.618034,1 -0.618034,1 -8.940983,0 z m 49.5,0 L 53,56 53,55 53,54 67.059017,54 81.118034,54 80.5,55 79.881966,56 66.440983,56 Z M 102.44098,56 89,56 l 0,-1 0,-1 14.05902,0 12.85354,0 -0.0306,2 -13.44098,0 z m 36,0 c -4.48033,10e-7 -8.96065,10e-7 -13.44098,0 l 0,-1 0,-1 c 4.68634,0.0063 9.37268,0.0063 14.05902,0 4.27381,-0.0057 8.54761,-0.01665 12.82139,-0.03279 l 0.002,2.032785 c -4.48048,3e-6 -8.96095,4e-6 -13.44143,5e-6 z m 27.05902,0 -1.5,0 0,-8 0,-8 1.5,0 1.5,0 0,8 0,8 -1.5,0 z m 22.44098,0 c -5.98033,10e-7 -11.96065,10e-7 -17.94098,0 l 0,-1 0,-1 c 6.18634,0.0011 12.37268,0.0011 18.55902,0 5.77099,-10e-4 11.54198,-0.0029 17.31297,-0.0058 l 0.01,2.005796 c -5.98034,2e-6 -11.96067,3e-6 -17.94101,4e-6 z m 22.55902,0 -1.5,0 0,-8 0,-8 1.5,0 1.5,0 0,8 0,8 -1.5,0 z M 29.531683,54 28.277344,54 28.755249,51.5 29.233154,49 30.616577,49 32,49 l 0,0.918213 -0.606989,2.5 L 30.786022,54 29.531683,54 Z M 6.511635,53 5.146614,53 C 4.239472,51.149518 3.3813027,49.275029 2.573307,47.379157 1.6494092,45.211333 0.79111679,43.01555 0,40.795824 l 2.2385654,-0.216302 c 0.9396819,2.07008 1.8793638,4.140159 2.8190456,6.210239 C 5.9972927,48.859841 6.9369744,50.92992 7.876656,53 l -1.365021,0 z m 45,0 -1.365021,0 C 49.239472,51.149518 48.381303,49.275029 47.573307,47.379157 46.649409,45.211333 45.791117,43.01555 45,40.795824 l 2.238565,-0.216302 c 0.939682,2.07008 1.879364,4.140159 2.819046,6.210239 0.939682,2.07008 1.879363,4.140159 2.819045,6.210239 l -1.365021,0 z m 36,0 -1.365021,0 C 85.239472,51.149518 84.381303,49.275029 83.573307,47.379157 82.649409,45.211333 81.791117,43.01555 81,40.795824 l 2.238565,-0.216302 c 0.939682,2.07008 1.879364,4.140159 2.819046,6.210239 0.939682,2.07008 1.879363,4.140159 2.819045,6.210239 l -1.365021,0 z M 117,52.204176 c 0.79112,-2.219725 1.64941,-4.415508 2.57331,-6.583333 0.80799,-1.895872 1.66616,-3.770361 2.5733,-5.620843 l 1.36503,0 1.36502,0 c -0.93968,2.070079 -1.87937,4.140159 -2.81905,6.210239 -0.93968,2.070079 -1.87936,4.140159 -2.81904,6.210239 L 117,52.204176 Z m 36,0 c 0.79112,-2.219725 1.64941,-4.415508 2.57331,-6.583333 0.80799,-1.895872 1.66616,-3.770361 2.5733,-5.620843 l 1.36503,0 1.36502,0 c -0.93968,2.070079 -1.87937,4.140159 -2.81905,6.210239 -0.93968,2.070079 -1.87936,4.140159 -2.81904,6.210239 L 153,52.204176 Z M 17,38 l 0,-2 8.806653,0 0.04054,1.961249 L 17,38 Z M 75.440983,38 71,38 l 0,-1 0,-1 5.059017,0 4.039002,0 -0.216053,2 -4.440983,0 z M 102.44098,38 98,38 l 0,-1 0,-1 c 1.686314,-0.01152 3.37271,-0.01152 5.05902,0 1.28458,0.0088 2.56912,0.02423 3.85354,0.04636 L 106.88197,38 l -4.44099,0 z m 36.05902,0 -1.5,0 0,-8 0,-8 1.5,0 1.5,0 0,8 0,8 -1.5,0 z m 27,0 -1.5,0 0,-8 0,-8 1.5,0 1.5,0 0,8 0,8 -1.5,0 z m 18,0 -1.5,0 0,-8 0,-8 1.5,0 1.5,0 0,8 0,8 -1.5,0 z m 13.44098,0 -8.94098,0 0,-1 0,-1 c 3.18626,-0.02701 6.37276,-0.02701 9.55902,0 2.76183,0.02342 5.52349,0.06713 8.28468,0.131138 L 205.88197,38 196.94098,38 Z M 82.983639,37 81.865225,37 c 1.043807,-2.353012 1.588859,-4.92586 1.588859,-7.5 0,-2.57414 -0.545052,-5.146988 -1.588859,-7.5 l 3.054492,0 c 0.752599,2.352176 1.111751,4.82972 1.058054,7.29878 -0.05723,2.63145 -0.583937,5.25201 -1.547873,7.70122 l -1.446259,0 z m 63.000001,0 -1.11842,0 c 1.04381,-2.353012 1.58886,-4.925859 1.58886,-7.5 0,-2.574141 -0.54505,-5.146988 -1.58886,-7.5 l 1.52725,0 1.52725,0 c 1.1274,2.159033 1.70688,4.601427 1.66955,7.036805 -0.0432,2.819188 -0.9182,5.620574 -2.48722,7.963195 l -1.11841,0 z M 0,34.204176 C 0.79111679,31.98445 1.6494092,29.788667 2.573307,27.620843 3.3813027,25.724971 4.239472,23.850482 5.146614,22 l 1.365021,0 1.365021,0 c -0.9396816,2.07008 -1.8793633,4.140159 -2.819045,6.210239 -0.9396818,2.07008 -1.8793637,4.140159 -2.8190456,6.210239 L 0,34.204176 Z m 45,0 C 45.791117,31.98445 46.649409,29.788667 47.573307,27.620843 48.381303,25.724971 49.239472,23.850482 50.146614,22 l 1.365021,0 1.365021,0 c -0.939682,2.07008 -1.879363,4.140159 -2.819045,6.210239 -0.939682,2.07008 -1.879364,4.140159 -2.819046,6.210239 L 45,34.204176 Z M 123.51164,35 l -1.36503,0 c -0.90714,-1.850482 -1.76531,-3.724971 -2.5733,-5.620843 -0.9239,-2.167825 -1.78219,-4.363608 -2.57331,-6.583333 l 2.3313,0.06188 c 0.91329,1.975268 1.82207,3.952626 2.72631,5.932053 0.94463,2.067831 1.88432,4.13792 2.81905,6.210243 l -1.36502,0 z M 66.5,31 64,31 l 0,-0.883423 0,-1.022516 c 0.833354,0.003 1.666735,-0.0018 2.5,-0.01426 0.833497,-0.01248 1.666878,-0.03269 2.5,-0.06063 L 69,31 66.5,31 Z m -35.755111,-7 -1.5,0 L 28,22.5 26.755111,21 l 1.5,0 1.5,0 L 31,22.5 l 1.244889,1.5 -1.5,0 z M 16.940983,20 8,20 l 0,-1 0,-1 9.559017,0 8.247636,0 0.07531,2 -8.94098,0 z m 22.5,0 L 35,20 l 0,-1 0,-1 c 1.686336,-0.0041 3.372681,-0.0041 5.059017,0 1.277573,0.0031 2.55514,0.0086 3.832692,0.01639 L 43.881966,20 39.440983,20 Z m 27,0 L 53,20 l 0,-1 0,-1 14.059017,0 12.853545,0 -0.0306,2 -13.440979,0 z M 102.44098,20 89,20 l 0,-1 0,-1 14.05902,0 14.05901,0 -0.61803,1 -0.61803,1 -13.44099,0 z m 18.05902,0 -1.5,0 0,-8 0,-8 1.5,0 1.5,0 0,8 0,8 -1.5,0 z m 45,0 -1.5,0 0,-8 0,-8 1.5,0 1.5,0 0,8 0,8 -1.5,0 z m 18,0 -1.5,0 0,-8 0,-8 1.5,0 1.5,0 0,8 0,8 -1.5,0 z m -23.98836,-3 -1.36503,0 c -0.90714,-1.850482 -1.76531,-3.724971 -2.5733,-5.620843 C 154.64941,9.2113324 153.79112,7.015549 153,4.795824 l 2.23857,-0.216302 c 0.93968,2.0700803 1.87936,4.14016 2.81904,6.210239 0.93968,2.07008 1.87937,4.14016 2.81905,6.210239 l -1.36502,0 z M 138.44098,2 125,2 l 0,-1 0,-1 14.05902,0 12.94627,0 -0.12332,2 -13.44099,0 z m 36,0 L 170,2 l 0,-1 0,-1 5.05902,0 3.76081,0 0.0621,2 -4.44095,0 z"
     id="path3402"
     inkscape:connector-curvature="0"
     sodipodi:nodetypes="cccccccccccccccccccccccccccccccccccccccccccccccccccccccccccccccccccccccccccccccccccccccccccccccccccccccccccccccccccccccccccccccccccccccccccccccccccccccccccccccccccccccccccccccccccccccccccccccccsccsccccscccsccccccccccccccccccccccccccccccccccccccccccccccccccccccccccccccccccccccccccccccccccccccccccccccccccccccccccccccccccccccccccccccc"
     inkscape:path-effect="#path-effect3465"
     inkscape:original-d="M 3.5,74 2,74 2,66 2,58 3.5,58 5,58 5,66 5,74 Z M 21.440983,74 8,74 l 0,-1 0,-1 14.059017,0 13.039002,0 -0.216053,2 z M 36,70.204176 38.573307,63.620843 41.146614,58 l 1.365021,0 1.365021,0 -2.819045,6.210239 -2.819046,6.210239 z M 16.940983,56 8,56 8,55 8,54 17.559017,54 27.118034,54 26.5,55 25.881966,56 Z m 49.5,0 L 53,56 53,55 53,54 67.059017,54 81.118034,54 80.5,55 79.881966,56 Z M 102.44098,56 89,56 l 0,-1 0,-1 14.05902,0 12.85354,0 -0.0306,2 z m 36,0 L 125,56 l 0,-1 0,-1 14.05902,0 12.82139,-0.03279 0.002,2.032785 z m 27.05902,0 -1.5,0 0,-8 0,-8 1.5,0 1.5,0 0,8 0,8 z M 187.94098,56 170,56 l 0,-1 0,-1 18.55902,0 17.31297,-0.0058 0.01,2.005796 z m 22.55902,0 -1.5,0 0,-8 0,-8 1.5,0 1.5,0 0,8 0,8 z M 29.531683,54 28.277344,54 28.755249,51.5 29.233154,49 30.616577,49 32,49 l 0,0.918213 -0.606989,2.5 L 30.786022,54 Z M 6.511635,53 5.146614,53 2.573307,47.379157 0,40.795824 2.2385654,40.579522 5.057611,46.789761 7.876656,53 Z m 45,0 -1.365021,0 L 47.573307,47.379157 45,40.795824 47.238565,40.579522 50.057611,46.789761 52.876656,53 Z m 36,0 -1.365021,0 L 83.573307,47.379157 81,40.795824 83.238565,40.579522 86.057611,46.789761 88.876656,53 Z M 117,52.204176 119.57331,45.620843 122.14661,40 l 1.36503,0 1.36502,0 -2.81905,6.210239 -2.81904,6.210239 z m 36,0 2.57331,-6.583333 2.5733,-5.620843 1.36503,0 1.36502,0 -2.81905,6.210239 -2.81904,6.210239 z M 17,38 l 0,-2 8.806653,0 0.04054,1.961249 z M 75.440983,38 71,38 l 0,-1 0,-1 5.059017,0 4.039002,0 -0.216053,2 z M 102.44098,38 98,38 l 0,-1 0,-1 5.05902,0 3.85354,0.04636 L 106.88197,38 Z m 36.05902,0 -1.5,0 0,-8 0,-8 1.5,0 1.5,0 0,8 0,8 z m 27,0 -1.5,0 0,-8 0,-8 1.5,0 1.5,0 0,8 0,8 z m 18,0 -1.5,0 0,-8 0,-8 1.5,0 1.5,0 0,8 0,8 z m 13.44098,0 -8.94098,0 0,-1 0,-1 9.55902,0 8.28468,0.131138 L 205.88197,38 Z M 82.983639,37 81.865225,37 c 0,0 1.588859,-4.944516 1.588859,-7.5 0,-2.555484 -1.588859,-7.5 -1.588859,-7.5 l 3.054492,0 c 0,0 1.138885,4.796726 1.058054,7.29878 C 85.896344,31.819259 84.429898,37 84.429898,37 Z m 63.000001,0 -1.11842,0 c 1.03598,-2.375392 1.51593,-4.935545 1.58886,-7.5 0.0742,-2.608558 -0.72668,-5.058118 -1.58886,-7.5 l 1.52725,0 1.52725,0 c 1.23185,3.095375 1.73223,5.144252 1.66955,7.036805 -0.0773,2.335055 -1.01185,4.432138 -2.48722,7.963195 z M 0,34.204176 2.573307,27.620843 5.146614,22 l 1.365021,0 1.365021,0 -2.819045,6.210239 -2.8190456,6.210239 z m 45,0 2.573307,-6.583333 L 50.146614,22 l 1.365021,0 1.365021,0 -2.819045,6.210239 -2.819046,6.210239 z M 123.51164,35 122.14661,35 119.57331,29.379157 117,22.795824 l 2.3313,0.06188 2.72631,5.932053 L 124.87666,35 Z M 66.5,31 64,31 64,30.116577 64,29.094061 66.5,29.079801 69,29.019171 69,31 Z m -35.755111,-7 -1.5,0 L 28,22.5 26.755111,21 l 1.5,0 1.5,0 L 31,22.5 32.244889,24 Z M 16.940983,20 8,20 l 0,-1 0,-1 9.559017,0 8.247636,0 0.07531,2 z m 22.5,0 L 35,20 l 0,-1 0,-1 5.059017,0 3.832692,0.01639 L 43.881966,20 Z m 27,0 L 53,20 l 0,-1 0,-1 14.059017,0 12.853545,0 -0.0306,2 z M 102.44098,20 89,20 l 0,-1 0,-1 14.05902,0 14.05901,0 -0.61803,1 -0.61803,1 z m 18.05902,0 -1.5,0 0,-8 0,-8 1.5,0 1.5,0 0,8 0,8 z m 45,0 -1.5,0 0,-8 0,-8 1.5,0 1.5,0 0,8 0,8 z m 18,0 -1.5,0 0,-8 0,-8 1.5,0 1.5,0 0,8 0,8 z m -23.98836,-3 -1.36503,0 -2.5733,-5.620843 L 153,4.795824 155.23857,4.579522 158.05761,10.789761 160.87666,17 Z M 138.44098,2 125,2 l 0,-1 0,-1 14.05902,0 12.94627,0 -0.12332,2 z m 36,0 L 170,2 l 0,-1 0,-1 5.05902,0 3.76081,0 0.0621,2 z" />
</svg>
